<svg width="174" height="24" viewBox="0 0 174 24" fill="none" xmlns="http://www.w3.org/2000/svg">
<path fill-rule="evenodd" clip-rule="evenodd" d="M164.633 4.06444L167.032 8.75848H167.014H161.469L163.868 4.06444H164.633ZM168.472 11.5926L169.574 13.7536H173.982L167.299 1.00003H161.255L154.465 13.7536H158.909L160.011 11.5926H168.472ZM153.274 1.00003H149.186V13.7536H153.274V1.00003ZM147.213 1.00003H133.064H133.046V13.7714H147.284V10.707H136.886V8.63449H146.68V5.83578H136.886V3.99359H147.213V1.00003ZM124.656 7.3237H119.324L119.342 7.30598V4.25929H124.656C125.084 4.26799 125.431 4.2767 125.694 4.2833C125.966 4.29013 126.148 4.29471 126.238 4.29471C126.434 4.31243 126.594 4.33014 126.718 4.40099C126.896 4.50727 127.038 4.64898 127.109 4.84383C127.181 5.03867 127.216 5.3398 127.216 5.74721C127.216 6.15462 127.181 6.47346 127.109 6.6683C127.056 6.88086 126.932 7.02257 126.772 7.12885C126.629 7.21742 126.487 7.27056 126.31 7.27056C126.132 7.28827 125.581 7.30598 124.656 7.3237ZM115.307 1.00003V13.7536V13.7714H119.2V10.5475H124.692C125.492 10.5475 126.025 10.5652 126.274 10.6007C126.541 10.6361 126.736 10.7424 126.878 10.8841C127.038 11.0435 127.127 11.2738 127.181 11.5749C127.234 11.8583 127.252 12.372 127.252 13.0805V13.7536H131.091V12.5669C131.091 11.4686 131.055 10.7424 131.002 10.4058C130.949 10.0516 130.807 9.76814 130.611 9.52015C130.256 9.11275 129.669 8.88247 128.851 8.81162C129.545 8.70534 130.06 8.51049 130.398 8.22708C130.7 7.96138 130.931 7.62483 131.038 7.18199C131.162 6.73916 131.215 6.04834 131.215 5.12724C131.215 4.02901 131.127 3.2142 130.949 2.70051C130.771 2.18682 130.433 1.79713 129.953 1.496C129.545 1.24801 129.118 1.10631 128.691 1.07088C128.265 1.03545 126.932 1.00003 124.728 1.00003H115.307ZM106.917 7.3237H101.584L101.602 7.30598V4.25929H106.917C107.345 4.26799 107.691 4.2767 107.954 4.2833C108.226 4.29013 108.409 4.29471 108.499 4.29471C108.694 4.31243 108.837 4.33014 108.979 4.40099C109.157 4.50727 109.299 4.64898 109.37 4.84383C109.441 5.03867 109.477 5.3398 109.477 5.74721C109.477 6.15462 109.441 6.47346 109.37 6.6683C109.317 6.88086 109.192 7.02257 109.032 7.12885C108.89 7.21742 108.748 7.27056 108.57 7.27056C108.392 7.28827 107.841 7.30598 106.917 7.3237ZM97.5673 1.00003V13.7536L97.5495 13.7714H101.442V10.5475H106.935C107.735 10.5475 108.268 10.5652 108.517 10.6007C108.783 10.6361 108.979 10.7424 109.121 10.8841C109.281 11.0435 109.37 11.2738 109.423 11.5749C109.494 11.8583 109.512 12.372 109.512 13.0805V13.7536H113.352V12.5669C113.352 11.4686 113.316 10.7424 113.263 10.4058C113.209 10.0516 113.067 9.76814 112.872 9.52015C112.516 9.11275 111.93 8.88247 111.112 8.81162C111.805 8.70534 112.321 8.51049 112.658 8.22708C112.96 7.96138 113.174 7.62483 113.298 7.18199C113.423 6.73916 113.476 6.04834 113.476 5.12724C113.476 4.02901 113.387 3.2142 113.209 2.70051C113.032 2.18682 112.694 1.79713 112.214 1.496C111.805 1.24801 111.378 1.10631 110.952 1.07088C110.525 1.03545 109.192 1.00003 106.988 1.00003H97.5673ZM83.2939 4.38328C83.7027 4.277 84.9114 4.22386 86.92 4.22386H86.9378C88.6975 4.22386 89.7996 4.24157 90.2617 4.31243C90.7239 4.38328 91.0616 4.5427 91.2571 4.8084C91.3993 5.02096 91.506 5.32209 91.5771 5.74721C91.6304 6.17233 91.666 6.82772 91.666 7.71339C91.666 8.47507 91.6126 9.00647 91.5415 9.34302C91.4704 9.66186 91.3105 9.90985 91.0972 10.087C90.8483 10.2818 90.475 10.4058 89.9773 10.459C89.4796 10.5121 88.4664 10.5475 86.9378 10.5475C85.3025 10.5475 84.2182 10.5121 83.6494 10.4412C82.8851 10.3527 82.4229 9.99842 82.2807 9.36073C82.1918 9.02418 82.1563 8.47507 82.1563 7.71339C82.1563 6.45574 82.2274 5.62321 82.3696 5.19809C82.5296 4.77297 82.8317 4.50727 83.2939 4.38328ZM92.4658 1.21259C91.4527 1.08859 89.6218 1.01774 86.9378 1.01774C84.2538 1.01774 82.4052 1.07088 81.4097 1.21259C79.9522 1.40743 79.0812 2.09825 78.7435 3.26734C78.5124 4.08215 78.4058 5.3398 78.4058 7.30598C78.4058 9.27217 78.5124 10.6715 78.7435 11.4863C79.0812 12.6554 79.9522 13.3462 81.4097 13.5411C82.4052 13.6651 84.3249 13.7359 86.9733 13.7359C89.6218 13.7359 91.4527 13.6828 92.4658 13.5411C93.9234 13.3462 94.8121 12.6554 95.1321 11.4863C95.3632 10.6892 95.4698 9.30759 95.4698 7.37684C95.4698 5.44608 95.3632 4.08215 95.1321 3.26734C94.8121 2.09825 93.9234 1.40743 92.4658 1.21259ZM72.5574 8.79391H72.5222L72.5578 8.77619L72.5574 8.79391ZM72.2023 10.2464C72.4316 10.0355 72.5384 9.56283 72.5574 8.79391H76.3083C76.3439 9.39616 76.3439 9.78586 76.3439 9.96299C76.3439 10.9195 76.2017 11.6635 75.9173 12.1949C75.5973 12.7971 74.993 13.2045 74.0686 13.4171C73.1621 13.6297 71.5624 13.7359 69.3227 13.7359C66.9586 13.7359 65.27 13.6828 64.2746 13.5942C63.2614 13.5057 62.5149 13.3285 61.9994 13.0628C61.5372 12.8326 61.1995 12.5137 60.9862 12.1063C60.7551 11.6989 60.6129 11.1498 60.5418 10.459C60.4885 9.89214 60.453 8.88247 60.453 7.41226C60.453 5.94206 60.4885 4.95011 60.5418 4.31243C60.5952 3.67474 60.7018 3.17877 60.8618 2.84222C61.1995 2.06283 61.9105 1.54914 62.9592 1.31887C64.008 1.08859 66.141 0.9646 69.3583 0.9646C70.958 0.9646 72.1312 1.00003 72.8599 1.07088C73.5887 1.14173 74.1753 1.28344 74.6019 1.47829C75.1707 1.74399 75.5618 2.13368 75.7928 2.66508C76.0239 3.19648 76.1306 3.95816 76.1306 4.96782C76.1306 5.02096 76.1306 5.23352 76.1128 5.58779H72.3267C72.3099 5.20329 72.2773 4.94501 72.2588 4.79805L72.2556 4.77297C72.22 4.63127 72.1489 4.52499 72.0423 4.43642C71.9001 4.31243 71.5268 4.22386 70.9402 4.17072C70.3537 4.11758 69.4649 4.08215 68.2562 4.08215C67.0475 4.08215 66.2476 4.09987 65.8033 4.15301C65.3411 4.20615 65.0211 4.31243 64.8434 4.45413C64.6123 4.63127 64.4701 4.95011 64.3812 5.37523C64.2924 5.80035 64.2568 6.49117 64.2568 7.41226C64.2568 8.33336 64.2924 9.00647 64.3812 9.39616C64.4701 9.78586 64.6123 10.0516 64.8434 10.2287C65.0567 10.3881 65.3944 10.4944 65.8566 10.5475C66.3187 10.6007 67.1364 10.6361 68.3273 10.6361C69.7849 10.6361 70.7447 10.6184 71.2246 10.5652C71.7046 10.5121 72.0245 10.4058 72.2023 10.2464ZM58.3733 1.00003H54.285V13.7536H58.3733V1.00003ZM48.5788 8.79391H48.5614L48.5792 8.77619L48.5788 8.79391ZM48.2237 10.2464C48.453 10.0355 48.5598 9.56283 48.5788 8.79391H52.3475C52.3831 9.3961 52.3831 9.78577 52.3831 9.96293V9.96299C52.3831 10.9195 52.2409 11.6635 51.9565 12.1949C51.6365 12.7971 51.0322 13.2045 50.1079 13.4171C49.2014 13.6297 47.6016 13.7359 45.3619 13.7359C42.9979 13.7359 41.3092 13.6828 40.3138 13.5942C39.3006 13.5057 38.5541 13.3285 38.0386 13.0628C37.5765 12.8326 37.2387 12.5137 37.0254 12.1063C36.7944 11.6989 36.6522 11.1498 36.5811 10.459C36.5277 9.89214 36.4922 8.88247 36.4922 7.41226C36.4922 5.94206 36.5277 4.95011 36.5811 4.31243C36.6344 3.67474 36.741 3.17877 36.901 2.84222C37.2387 2.06283 37.9497 1.54914 38.9985 1.31887C40.0472 1.08859 42.1802 0.9646 45.3975 0.9646C46.9972 0.9646 48.1704 1.00003 48.8814 1.07088C49.6102 1.14173 50.1968 1.28344 50.6234 1.47829C51.1922 1.74399 51.5832 2.13368 51.8143 2.66508C52.0454 3.19648 52.152 3.95816 52.152 4.96782C52.152 5.02096 52.152 5.23352 52.1342 5.58779H48.3481C48.3314 5.20318 48.2987 4.94487 48.2802 4.79794L48.277 4.77297C48.2415 4.63127 48.1704 4.52499 48.0637 4.43642C47.9215 4.31243 47.5483 4.22386 46.9617 4.17072C46.3751 4.11758 45.4864 4.08215 44.2777 4.08215C43.069 4.08215 42.2691 4.09987 41.8247 4.15301C41.3803 4.20615 41.0426 4.31243 40.8648 4.45413C40.6338 4.63127 40.4916 4.95011 40.4027 5.37523C40.3138 5.80035 40.2783 6.49117 40.2783 7.41226C40.2783 8.33336 40.3138 9.00647 40.4027 9.39616C40.4916 9.78586 40.6338 10.0516 40.8648 10.2287C41.0781 10.3881 41.4159 10.4944 41.878 10.5475C42.3402 10.6007 43.1578 10.6361 44.3488 10.6361C45.8063 10.6361 46.7662 10.6184 47.2461 10.5652C47.726 10.5121 48.046 10.4058 48.2237 10.2464ZM22.1477 4.38328C22.5565 4.277 23.7652 4.22386 25.7738 4.22386H25.7916C27.5513 4.22386 28.6534 4.24157 29.1155 4.31243C29.5777 4.38328 29.9154 4.5427 30.1109 4.8084C30.2531 5.02096 30.3598 5.32209 30.4309 5.74721C30.4842 6.17233 30.5198 6.82772 30.5198 7.71339C30.5198 8.47507 30.4664 9.00647 30.3953 9.34302C30.3242 9.66186 30.1643 9.90985 29.951 10.087C29.7021 10.2818 29.3288 10.4058 28.8311 10.459C28.3334 10.5121 27.3203 10.5475 25.7916 10.5475C24.1563 10.5475 23.072 10.5121 22.5032 10.4412C21.7389 10.3527 21.2945 9.99842 21.1345 9.36073C21.0457 9.02418 21.0101 8.47507 21.0101 7.71339C21.0101 6.45574 21.0812 5.62321 21.2234 5.19809C21.3834 4.77297 21.6856 4.50727 22.1477 4.38328ZM31.3196 1.21259C30.3065 1.08859 28.4756 1.01774 25.7916 1.01774C23.1076 1.01774 21.259 1.07088 20.2636 1.21259C18.806 1.40743 17.9173 2.09825 17.5973 3.26734C17.3662 4.08215 17.2596 5.3398 17.2596 7.30598C17.2596 9.27217 17.3662 10.6715 17.5973 11.4863C17.9173 12.6554 18.806 13.3462 20.2636 13.5411C21.259 13.6651 23.1787 13.7359 25.8272 13.7359C28.4756 13.7359 30.3065 13.6828 31.3196 13.5411C32.7772 13.3462 33.6482 12.6554 33.9859 11.4863C34.217 10.6892 34.3236 9.30759 34.3236 7.37684C34.3236 5.44608 34.1992 4.08215 33.9859 3.26734C33.6482 2.09825 32.7772 1.40743 31.3196 1.21259ZM3.67944 9.46702H0L0.0177751 9.48473V10.0693C0.0177751 10.9549 0.10665 11.6103 0.284401 12.0532C0.479926 12.496 0.799877 12.8503 1.26203 13.116C1.70641 13.364 2.38186 13.5411 3.27061 13.6297C4.15936 13.7182 5.54582 13.7714 7.4122 13.7714C9.63408 13.7714 11.1627 13.7359 11.9804 13.6651C12.7447 13.5765 13.3313 13.4348 13.7579 13.24C14.1667 13.0274 14.5044 12.7263 14.7355 12.3012C15.0555 11.7343 15.2154 10.8664 15.2154 9.69729C15.2154 8.81162 15.1266 8.13851 14.931 7.66025C14.7533 7.18199 14.4333 6.81001 13.9712 6.54431C13.5624 6.31404 13.0291 6.17233 12.3537 6.08376C11.6782 5.9952 10.3451 5.92434 8.3365 5.8712C5.95464 5.80035 4.60374 5.71178 4.31934 5.64093C3.96384 5.55236 3.78609 5.30437 3.78609 4.84383C3.78609 4.38328 3.96384 4.11758 4.31934 4.0113C4.65706 3.92273 5.65247 3.86959 7.25222 3.86959C8.58535 3.86959 9.45633 3.86959 9.86516 3.90502C10.274 3.92273 10.5762 3.99359 10.7361 4.08215C10.8606 4.15301 10.9672 4.25929 11.0028 4.38328C11.0561 4.50727 11.0916 4.73755 11.0916 5.09181H14.7533V4.50727C14.7533 3.37362 14.54 2.57652 14.1134 2.09826C13.6868 1.63771 12.9047 1.31887 11.7671 1.15945C11.0383 1.05317 9.7585 1.00003 7.92767 1.00003C5.35029 1.00003 3.64389 1.05317 2.79068 1.17716C1.93748 1.30115 1.31535 1.60228 0.906528 2.04511C0.373276 2.61194 0.10665 3.60389 0.124425 4.98553C0.124425 6.24318 0.355501 7.12885 0.817653 7.66025C1.08428 7.97909 1.47533 8.20937 1.95526 8.35107C2.45296 8.49278 3.14618 8.58135 4.05271 8.61677L4.30969 8.62644C4.84456 8.64643 5.76972 8.68099 7.07447 8.74077C8.58535 8.81162 9.58075 8.84705 10.0429 8.84705C10.6473 8.86476 11.0561 8.93561 11.2516 9.05961C11.4471 9.1836 11.5538 9.43159 11.5538 9.80357C11.5538 10.3173 11.4116 10.6184 11.1272 10.7424C10.9317 10.8132 10.6828 10.8841 10.3629 10.8841C10.0429 10.9195 9.08305 10.9195 7.4833 10.9195C5.95464 10.9018 5.04812 10.8841 4.76371 10.8664C4.46154 10.8487 4.23046 10.7778 4.05271 10.6538C3.80386 10.4767 3.67944 10.087 3.67944 9.46702ZM140.956 19.5636H136.815H136.779V20.7504H139.161V20.9098C139.161 21.087 139.143 21.211 139.108 21.2995C139.072 21.3704 139.019 21.4412 138.93 21.4767C138.823 21.5121 138.681 21.5475 138.503 21.5475C138.326 21.5652 137.81 21.5652 136.993 21.5652H136.992C136.411 21.5652 135.994 21.5481 135.739 21.5377C135.628 21.5331 135.548 21.5298 135.499 21.5298C135.339 21.5121 135.197 21.459 135.108 21.3881C135.019 21.2995 134.948 21.1578 134.913 20.963C134.859 20.7681 134.859 20.4139 134.859 19.9179C134.859 19.4751 134.877 19.1562 134.913 18.9791C134.948 18.8019 135.002 18.6602 135.108 18.5894C135.197 18.5185 135.375 18.4654 135.659 18.43C135.944 18.3945 136.388 18.3945 137.01 18.3945C137.339 18.3945 137.627 18.4005 137.869 18.4055L137.869 18.4055C138.046 18.4091 138.198 18.4123 138.326 18.4123C138.646 18.43 138.859 18.4831 138.965 18.554C139.019 18.5894 139.072 18.6425 139.072 18.6957C139.108 18.7488 139.108 18.8551 139.108 19.0322H140.921C140.921 18.6071 140.903 18.2883 140.85 18.058C140.743 17.5797 140.476 17.2786 140.014 17.1369C139.73 17.066 139.357 16.9952 138.93 16.9598C138.486 16.9243 137.899 16.9066 137.152 16.9066C135.89 16.9066 134.948 16.9598 134.344 17.066C133.793 17.1546 133.437 17.438 133.26 17.8986C133.171 18.1288 133.117 18.3591 133.082 18.6425C133.046 18.9082 133.046 19.3156 133.046 19.8647C133.046 20.6618 133.064 21.1933 133.1 21.459C133.135 21.7424 133.206 21.9726 133.295 22.1498C133.384 22.3269 133.526 22.4686 133.686 22.5749C133.935 22.752 134.273 22.8583 134.699 22.9114C135.126 22.9823 135.837 23 136.868 23C137.668 23 138.272 22.9823 138.663 22.9646C139.054 22.9469 139.41 22.8937 139.712 22.8406C140.423 22.6989 140.814 22.2915 140.885 21.6007C140.939 21.1933 140.956 20.5556 140.956 19.723V19.5636ZM141.685 22.9292V17.0129H146.058C147.089 17.0129 147.693 17.0129 147.906 17.0484C148.102 17.0661 148.297 17.1369 148.493 17.2432C148.724 17.3849 148.866 17.5621 148.955 17.81C149.044 18.058 149.08 18.43 149.08 18.9437C149.08 19.3688 149.044 19.6877 148.991 19.9002C148.937 20.1128 148.831 20.2722 148.689 20.3962C148.529 20.5202 148.28 20.6088 147.96 20.6619C148.333 20.6973 148.617 20.8036 148.777 20.9807C148.866 21.087 148.937 21.2287 148.955 21.3881C148.973 21.5476 148.991 21.8841 148.991 22.3978V22.9469H147.195V22.6281V22.6276C147.195 22.2913 147.195 22.0612 147.16 21.9195C147.142 21.7778 147.089 21.6716 147.018 21.6007C146.947 21.5298 146.858 21.4944 146.751 21.459C146.706 21.459 146.643 21.4543 146.565 21.4483L146.565 21.4482L146.564 21.4482C146.428 21.4378 146.241 21.4236 146.005 21.4236H143.445V22.9292H141.685ZM143.498 19.9356H146.04H146.04C146.484 19.9356 146.751 19.9356 146.84 19.9179C146.929 19.9179 147 19.8825 147.053 19.8471C147.124 19.7939 147.195 19.7231 147.213 19.6345C147.249 19.5282 147.267 19.3865 147.267 19.1917C147.267 18.9968 147.267 18.8551 147.213 18.7666C147.178 18.678 147.107 18.6071 147.018 18.554C146.947 18.5186 146.875 18.5009 146.787 18.5009H146.022H143.48V19.9534L143.498 19.9356ZM151.497 16.9951H149.684L149.701 17.0128V19.7407C149.701 20.1919 149.709 20.5373 149.714 20.7769C149.717 20.9042 149.719 21.0016 149.719 21.0692C149.719 21.249 149.749 21.444 149.782 21.654L149.79 21.7069C149.897 22.3268 150.27 22.7165 150.91 22.8582C151.194 22.9291 151.532 22.9645 151.923 22.9999C152.314 23.0354 152.865 23.0354 153.576 23.0354H153.576C154.536 23.0354 155.212 23.0177 155.638 22.9645C156.065 22.9291 156.385 22.8228 156.616 22.6988C157.007 22.4685 157.256 22.0966 157.327 21.6006C157.362 21.2995 157.398 20.6795 157.416 19.7407V17.0128H155.603V19.7407C155.603 19.8203 155.599 19.9071 155.595 20.0026V20.003V20.0033C155.59 20.1202 155.585 20.2501 155.585 20.3961C155.567 20.6618 155.549 20.8389 155.514 20.9452C155.496 21.0515 155.443 21.14 155.372 21.2109C155.265 21.3172 155.105 21.388 154.856 21.4235C154.625 21.4589 154.181 21.4766 153.559 21.4766C152.776 21.4766 152.261 21.4412 152.012 21.3703C151.763 21.2995 151.621 21.14 151.568 20.9098C151.532 20.7504 151.497 20.3429 151.497 19.723V16.9951ZM158.216 16.9951H162.286C163.086 16.9951 163.619 16.9951 163.851 17.0483C164.437 17.1191 164.846 17.314 165.041 17.6151C165.255 17.9162 165.344 18.4476 165.344 19.2093C165.344 19.971 165.255 20.4492 165.095 20.7504C164.97 20.9452 164.81 21.1046 164.615 21.2109C164.402 21.3172 164.117 21.388 163.762 21.4235C163.495 21.4589 163.015 21.4589 162.322 21.4589H160.047V22.9114H158.234H158.216V16.9951ZM162.286 19.9887H160.047V18.483H162.304C162.855 18.483 163.157 18.5008 163.246 18.5362C163.353 18.5716 163.442 18.6425 163.477 18.7487C163.531 18.8373 163.548 18.9967 163.548 19.2093C163.548 19.4218 163.531 19.5636 163.495 19.6698C163.459 19.7761 163.388 19.847 163.299 19.9001C163.228 19.9355 163.14 19.971 163.051 19.971C162.944 19.9887 162.695 19.9887 162.286 19.9887ZM172.56 16.9952C172.08 16.942 171.191 16.9066 169.911 16.9066C168.632 16.9066 167.743 16.9243 167.263 16.9952C166.57 17.1015 166.143 17.4203 165.983 17.9871C165.877 18.3768 165.823 18.9791 165.823 19.9179C165.823 20.8567 165.877 21.5298 165.983 21.9195C166.143 22.4863 166.57 22.8229 167.263 22.9114C167.743 22.9646 168.649 23 169.929 23C171.209 23 172.08 22.9823 172.56 22.9114C173.253 22.8052 173.68 22.4863 173.84 21.9195C173.946 21.5298 174 20.8744 174 19.9533C174 19.0322 173.946 18.3768 173.84 17.9871C173.68 17.4203 173.253 17.0837 172.56 16.9952ZM168.17 18.5185C168.365 18.4654 168.952 18.4477 169.911 18.4477L169.894 18.43C170.747 18.43 171.28 18.4477 171.493 18.4831C171.725 18.5008 171.885 18.5894 171.973 18.7134C172.045 18.8197 172.098 18.9791 172.133 19.1739C172.169 19.3688 172.169 19.6876 172.169 20.1127C172.169 20.4847 172.151 20.7327 172.116 20.8921C172.08 21.0515 172.009 21.1578 171.902 21.2464C171.796 21.335 171.618 21.4058 171.369 21.4235C171.12 21.459 170.64 21.459 169.911 21.459C169.129 21.459 168.596 21.4412 168.33 21.4058C167.956 21.3704 167.743 21.1933 167.672 20.8921C167.636 20.7327 167.619 20.467 167.619 20.1127C167.619 19.5105 167.654 19.1031 167.725 18.9082C167.796 18.7134 167.938 18.5717 168.17 18.5185Z" fill="#191919"/>
</svg>
