<svg width="134" height="18" viewBox="0 0 134 18" fill="none" xmlns="http://www.w3.org/2000/svg">
<path fill-rule="evenodd" clip-rule="evenodd" d="M120.303 17.7279H120.304H120.304H120.305H120.306C120.736 17.727 121.174 17.7261 121.623 17.7271V17.7291C122.125 17.7258 122.646 17.7272 123.181 17.7287H123.181C124.287 17.7317 125.45 17.7348 126.611 17.6971C127.72 17.6612 128.824 17.5893 129.904 17.3037C131.478 16.8864 132.558 15.9379 133.061 14.3704C133.355 13.4579 133.442 12.5134 133.45 11.5629C133.46 10.3567 133.458 9.15143 133.456 7.94577C133.455 7.443 133.454 6.94015 133.454 6.43712C133.454 5.69431 133.397 4.95549 133.273 4.22267C132.919 2.14399 131.753 0.88401 129.716 0.388802C128.514 0.097269 127.286 0.0313744 126.058 0.025384C125.59 0.0226746 125.121 0.0194659 124.653 0.0162575C122.015 -0.0018151 119.378 -0.0198793 116.741 0.0513425C115.641 0.0812946 114.543 0.173148 113.48 0.49064C111.927 0.951901 110.897 1.94032 110.443 3.5138C110.176 4.44232 110.098 5.39479 110.09 6.35126C110.076 7.81572 110.08 9.2787 110.084 10.7427V10.7434V10.7441V10.7448V10.7455L110.086 11.4771C110.086 12.1959 110.136 12.9108 110.268 13.6196C110.615 15.4727 111.667 16.7007 113.484 17.2538C114.431 17.5414 115.407 17.6332 116.388 17.6771C117.665 17.7332 118.944 17.7306 120.303 17.7279H120.303ZM122.408 13.3825C122.154 13.3823 121.885 13.382 121.595 13.382L121.597 13.384C121.305 13.3781 120.993 13.3799 120.669 13.3818C120.003 13.3857 119.283 13.3899 118.564 13.3281C118.111 13.2882 117.664 13.2183 117.226 13.0885C116.23 12.793 115.697 12.11 115.541 11.1037C115.485 10.7482 115.465 10.3908 115.471 10.0314C115.479 9.66584 115.473 9.29963 115.468 8.93327C115.458 8.20693 115.448 7.48 115.535 6.75661C115.697 5.42874 116.364 4.74982 117.688 4.50821C118.43 4.37243 119.179 4.34647 119.928 4.34647C120.238 4.34565 120.548 4.34409 120.858 4.34252C122.064 4.33642 123.271 4.33031 124.477 4.36843C125.052 4.38641 125.623 4.43832 126.18 4.59008C127.34 4.90757 127.947 5.59048 128.041 6.78457C128.149 8.16835 128.151 9.56013 128.041 10.9439C127.935 12.2618 127.172 13.0006 125.783 13.2323C125.102 13.3461 124.419 13.378 123.732 13.382C123.307 13.3833 122.881 13.3829 122.408 13.3825ZM87.9872 5.31687V4.95545L87.9892 4.95944C88.0341 5.0141 88.0694 5.05636 88.0997 5.0925C88.1313 5.1303 88.1574 5.16143 88.1829 5.19307C91.499 9.21413 94.8151 13.2372 98.1313 17.2602L98.1869 17.3277C98.2747 17.4335 98.3566 17.5114 98.5183 17.5114C100.962 17.5054 103.407 17.5034 105.851 17.5114C106.034 17.5114 106.068 17.4594 106.068 17.2857C106.064 11.6727 106.062 6.05968 106.068 0.446667C106.068 0.266954 106.024 0.223024 105.845 0.223024C104.255 0.231012 102.666 0.233008 101.076 0.223024C100.857 0.221028 100.803 0.276938 100.803 0.496587C100.809 3.51531 100.808 6.5329 100.807 9.55022C100.807 10.5566 100.807 11.5629 100.807 12.5693C100.807 12.5857 100.808 12.6022 100.809 12.6191L100.809 12.6193C100.814 12.6803 100.818 12.7449 100.767 12.8169C100.744 12.7895 100.722 12.7635 100.7 12.7383C100.665 12.6972 100.631 12.658 100.599 12.6172L100.132 12.0422C96.9766 8.16018 93.82 4.27637 90.6689 0.390756C90.5651 0.26296 90.4612 0.223024 90.3055 0.223024C87.8534 0.227018 85.4013 0.229015 82.9492 0.221028C82.7456 0.219031 82.7036 0.278935 82.7036 0.472625C82.7096 6.07766 82.7096 11.6827 82.7036 17.2877C82.7036 17.4634 82.7416 17.5094 82.9233 17.5094C84.5287 17.4994 86.1342 17.4974 87.7396 17.5094C87.9592 17.5114 87.9912 17.4455 87.9912 17.2458C87.9872 13.2701 87.9872 9.29251 87.9872 5.31687ZM65.5829 10.761L65.5832 10.7611C65.7061 10.8032 65.817 10.8412 65.9265 10.8821C67.2744 11.3893 67.9952 12.4296 67.9952 13.8693C67.9952 14.1465 67.995 14.4235 67.9947 14.7004L67.9947 14.7254V14.7256V14.7258V14.726C67.994 15.5819 67.9932 16.4373 67.9992 17.2939C67.9992 17.4576 67.9613 17.5075 67.7895 17.5075C66.1601 17.5015 64.5328 17.5015 62.9034 17.5075C62.7456 17.5075 62.7037 17.4656 62.7037 17.3078C62.7046 17.0997 62.7065 16.8916 62.7084 16.6834L62.7085 16.6813C62.7151 15.9717 62.7216 15.2624 62.6877 14.5542C62.6418 13.6257 62.2005 13.2224 61.272 13.1325C60.9145 13.0986 60.5551 13.0846 60.1977 13.0846C59.6456 13.0846 59.0936 13.0848 58.5417 13.085C56.6103 13.0857 54.6795 13.0864 52.7476 13.0786C52.52 13.0786 52.48 13.1465 52.482 13.3542C52.487 14.0086 52.487 14.6626 52.487 15.3165V15.318V15.3195C52.487 15.9735 52.487 16.6274 52.492 17.2819C52.492 17.4616 52.4501 17.5055 52.2704 17.5035C50.649 17.4955 49.0296 17.4955 47.4082 17.5035C47.2045 17.5035 47.1645 17.4456 47.1645 17.2499C47.1705 11.6549 47.1705 6.05784 47.1645 0.462788C47.1645 0.263108 47.2165 0.213188 47.4141 0.213188C49.5477 0.215953 51.6812 0.216165 53.8147 0.216378C56.3038 0.216626 58.7929 0.216874 61.282 0.221175C62.5339 0.223172 63.7859 0.281079 65.004 0.62453C66.1142 0.936031 67.0308 1.50911 67.5579 2.5814C67.8714 3.21838 68.0192 3.90328 68.0831 4.60416C68.1869 5.74434 68.1869 6.88252 67.9473 8.00871C67.6458 9.42245 66.7951 10.315 65.3235 10.6625L65.3215 10.6705C65.4158 10.7037 65.5019 10.7332 65.5829 10.761ZM56.9589 8.75153C57.2331 8.75153 57.5073 8.75197 57.7816 8.75241C58.33 8.7533 58.8785 8.75419 59.4269 8.75153C59.617 8.75031 59.807 8.75244 59.997 8.75456H59.9971H59.9971H59.9972C60.43 8.75941 60.8624 8.76425 61.2939 8.72956C62.0447 8.67165 62.478 8.30424 62.6518 7.57541C62.7716 7.07421 62.7756 6.56502 62.7336 6.05384C62.6617 5.19921 62.2185 4.71199 61.3758 4.57421C61.2041 4.54625 61.0264 4.53827 60.8506 4.53827C59.9455 4.5376 59.0406 4.53738 58.1357 4.53716H58.1356H58.1355H58.1354H58.1348C56.3252 4.53671 54.5159 4.53627 52.7057 4.53228C52.526 4.53228 52.48 4.5802 52.48 4.75991C52.488 6.01391 52.488 7.2659 52.48 8.5199C52.48 8.70959 52.53 8.75751 52.7177 8.75552C53.7778 8.74953 54.838 8.75028 55.8974 8.75103H55.8975H55.8977H55.8979H55.8982H55.8984H55.8987C56.2515 8.75128 56.6043 8.75153 56.9569 8.75153H56.9589ZM21.1621 15.1991C20.7508 15.9519 20.3394 16.7047 19.9141 17.4854V17.4874C19.9305 17.4903 19.9442 17.4928 19.9559 17.4949L19.956 17.4949C19.9855 17.5003 20.0022 17.5034 20.0179 17.5034C20.63 17.5041 21.2418 17.5043 21.8536 17.5045H21.8537H21.8538C23.0781 17.505 24.3022 17.5054 25.5271 17.5094C25.6711 17.5114 25.7177 17.4315 25.7727 17.3372L25.7747 17.3337C25.8854 17.1452 25.9962 16.9568 26.1071 16.7682L26.1113 16.7612C26.4913 16.1151 26.8718 15.4682 27.2464 14.8177C27.3243 14.6859 27.4001 14.628 27.5619 14.628C30.9305 14.632 34.3011 14.632 37.6697 14.628C37.8155 14.628 37.8953 14.6739 37.9672 14.8017C38.19 15.1928 38.4158 15.5817 38.6417 15.9707L38.6417 15.9708L38.6418 15.9709C38.9037 16.422 39.1656 16.8731 39.4229 17.3277C39.5008 17.4675 39.5846 17.5094 39.7384 17.5094C41.5355 17.5054 43.3306 17.5054 45.1278 17.5054C45.1346 17.5054 45.1414 17.5057 45.1484 17.5061C45.1542 17.5064 45.1601 17.5068 45.1661 17.5072H45.1661C45.2153 17.5105 45.2674 17.5141 45.3195 17.4715C45.3106 17.4538 45.3023 17.4367 45.2941 17.4198C45.2781 17.387 45.2627 17.3554 45.2456 17.3237C44.8143 16.52 44.3835 15.7168 43.9527 14.9136C43.5218 14.1103 43.091 13.3071 42.6597 12.5034L42.6567 12.4978L42.6551 12.4948L42.6539 12.4925C40.5033 8.48459 38.3527 4.47663 36.208 0.464683C36.1062 0.272989 35.9944 0.219076 35.7847 0.219076C33.716 0.227063 31.6493 0.227063 29.5806 0.219076C29.389 0.217079 29.3051 0.282973 29.2192 0.442718C26.5375 5.36284 23.8498 10.281 21.1621 15.1991ZM35.5308 9.68067L35.9544 10.4527H29.365L30.4492 8.43414C31.1711 7.09015 31.893 5.74615 32.6238 4.38441C33.5967 6.15622 34.559 7.90982 35.5266 9.67298L35.5308 9.68067ZM0.00199681 0.253021C0.0630893 0.213311 0.120677 0.217993 0.17476 0.22239C0.191385 0.223741 0.207679 0.225066 0.223642 0.225066L1.1022 0.225177H1.10221C2.56603 0.225454 4.02893 0.225731 5.49321 0.219076C5.68091 0.219076 5.77276 0.27898 5.85663 0.440721C7.61183 3.80334 9.36979 7.16319 11.1305 10.5283L11.1309 10.529L12.2005 12.5733C12.2791 12.5409 12.3089 12.474 12.3378 12.4093C12.3463 12.3903 12.3547 12.3714 12.3642 12.3537L13.6149 10.1044C15.4008 6.89294 17.1865 3.68178 18.9657 0.466679C19.0675 0.282973 19.1733 0.217079 19.387 0.219076C21.0883 0.22906 22.7875 0.227063 24.4888 0.221072C24.6945 0.221072 24.7164 0.257015 24.6186 0.438724C21.6074 6.06772 18.6002 11.6987 15.599 17.3317C15.5292 17.4635 15.4573 17.5074 15.3095 17.5074C13.3047 17.5014 11.3019 17.5034 9.29712 17.5074C9.15136 17.5074 9.07548 17.4655 9.00559 17.3317C6.31888 12.2313 3.62563 7.13416 0.931753 2.03586L0.0878594 0.438724C0.0682346 0.401928 0.0508701 0.363624 0.0334519 0.325203L0.0334516 0.325202C0.0225133 0.301074 0.0115538 0.276899 0 0.253021H0.00199681ZM72.6918 7.19493C72.6917 7.75438 72.6917 8.31381 72.6917 8.87324V8.86924C72.6917 11.6728 72.6916 14.4743 72.6877 17.2758C72.6877 17.4395 72.7056 17.5054 72.9013 17.5054C74.5207 17.4974 76.1421 17.4994 77.7635 17.5054C77.9293 17.5074 77.9752 17.4695 77.9752 17.2998C77.9692 11.6807 77.9692 6.05974 77.9752 0.44073C77.9752 0.255027 77.9233 0.219085 77.7496 0.219085C76.1461 0.227072 74.5407 0.229069 72.9353 0.219085C72.7356 0.217088 72.6877 0.271002 72.6877 0.466688C72.6924 2.71037 72.6921 4.95278 72.6918 7.19493Z" fill="#F7F6F1"/>
</svg>
