<svg width="160" height="45" viewBox="0 0 160 45" fill="none" xmlns="http://www.w3.org/2000/svg">
<path fill-rule="evenodd" clip-rule="evenodd" d="M0 44.9998L22.491 0L29.9999 15.0177L21.71 31.5798C17.6094 39.7987 9.19523 44.9998 0 44.9998ZM44.9998 44.9998L37.5087 30.0176V29.9999L33.3727 38.2898C31.8283 41.3785 34.065 44.9998 37.5087 44.9998H44.9998ZM51.3371 27.9585C50.1655 26.6804 49.5797 24.9052 49.5797 22.6153C49.5797 20.3254 50.272 18.4792 51.6744 17.0769C53.0767 15.6745 54.9229 14.9822 57.2483 14.9822C58.5086 14.9822 59.8223 15.213 61.1714 15.6922L60.4258 18.1597L57.3016 16.6153C55.3134 16.6153 53.9288 17.0414 53.1477 17.8934C52.3667 18.7455 51.9761 20.1656 51.9761 22.136C51.9761 24.1064 52.3667 25.6508 53.1477 26.7336C53.9288 27.7987 54.9939 28.349 56.3252 28.349C57.4258 28.349 58.4554 28.065 59.4317 27.4792L59.343 24.781L58.9702 23.3431L61.5974 23.2011L61.2956 28.775C59.9998 29.4851 58.5264 29.8401 56.8933 29.8756C56.8543 29.8756 56.801 29.878 56.7335 29.881H56.7335C56.6166 29.8862 56.4568 29.8934 56.2542 29.8934C54.1773 29.8934 52.5442 29.2543 51.3726 27.9762L51.3371 27.9585ZM68.1832 22.5443V23.1301L68.1654 23.1478L71.2719 27.2839L72.4435 29.7336L75.621 29.5739V29.3431L73.6328 27.1597L70.8814 23.5384C71.9287 23.3076 72.7098 22.8283 73.2601 22.1183C73.8104 21.4082 74.0766 20.5029 74.0766 19.3845C74.0766 16.4556 72.479 14.9822 69.3015 14.9822C68.2542 14.9822 66.7986 15.1597 64.9524 15.4792L65.3784 18.5857V24.9052L65.0589 29.5561H67.6861L67.3666 24.923V19.9881L67.5974 16.5088C68.1122 16.4201 68.5027 16.3846 68.7867 16.3846C70.7749 16.3846 71.769 17.4496 71.769 19.5976C71.769 20.6626 71.5027 21.4082 70.9524 21.8697C70.4021 22.3135 69.479 22.5443 68.1832 22.5443ZM77.8399 23.3431V19.9348L77.5204 15.3017H80.3606L80.0589 19.9526V22.4733C80.0589 24.4969 80.3074 25.9348 80.8222 26.8046C81.337 27.6745 82.189 28.1005 83.4139 28.1005C84.6387 28.1005 85.5086 27.71 86.0766 26.9466C86.6269 26.1833 86.9109 24.9407 86.9109 23.2188V19.9526L86.6091 15.3017H89.0766L88.7571 19.9348V23.0591C88.7571 27.6034 86.8577 29.8756 83.0411 29.8756C79.5973 29.8756 77.8754 27.6922 77.8754 23.3431H77.8399ZM95.8208 23.628L95.8221 23.6449L95.8044 23.6271L95.8208 23.628ZM98.112 23.7514L95.8208 23.628L95.7511 22.7218C97.118 22.7218 98.0943 22.491 98.6801 22.0117C99.2659 21.5502 99.5677 20.7514 99.5677 19.6686C99.5677 17.4674 98.5381 16.3491 96.4612 16.3491C96.1239 16.3491 95.7156 16.3846 95.2008 16.4733L94.97 19.9526V24.8875L95.2896 29.5206H92.6624L92.9996 24.8697V18.5502L92.5736 15.4437C94.5085 15.1242 95.9819 14.9467 96.9582 14.9467C100.224 14.9467 101.875 16.4378 101.875 19.4378C101.875 20.6626 101.556 21.639 100.899 22.3845C100.242 23.1301 99.3191 23.5916 98.112 23.7514ZM110.831 29.8756C108.74 29.8738 107.128 29.2347 105.958 27.9407C104.804 26.6449 104.219 24.852 104.219 22.5443C104.219 20.2366 104.858 18.4082 106.118 17.0236C107.378 15.639 109.065 14.9467 111.177 14.9467C113.29 14.9467 114.905 15.5857 116.059 16.8816C117.213 18.1597 117.798 19.9526 117.798 22.2603C117.798 24.568 117.159 26.4141 115.881 27.7987C114.605 29.1814 112.921 29.8737 110.831 29.8756ZM110.831 29.8756L110.84 29.8756H110.822L110.831 29.8756ZM106.579 22.5443C106.579 24.3727 106.988 25.7928 107.822 26.8046C108.656 27.8165 109.828 28.3135 111.319 28.3135C112.207 28.3135 113.076 28.136 113.929 27.781C114.337 27.3727 114.674 26.6449 114.976 25.5798C115.26 24.5147 115.402 23.4319 115.402 22.3313C115.402 20.4319 114.994 18.994 114.177 17.9999C113.361 17.0059 112.153 16.5088 110.591 16.5088C109.704 16.5088 108.852 16.6863 108.053 17.0414C107.645 17.4319 107.29 18.1774 107.006 19.2425C106.721 20.3254 106.579 21.426 106.579 22.5265V22.5443ZM129.284 16.9704L124.278 29.5383H126.639L127.491 25.9703H133.295L134.005 29.5206H136.757L131.591 15.213L129.727 15.355L129.284 16.9704ZM130.517 17.6353L128.147 24.3372H132.745L130.517 17.6353ZM141.372 16.9526L141.159 19.9526V21.7277H143.414L145.65 21.4792L145.455 23.2544H141.159V24.8875L141.496 29.5206H138.852L139.189 24.8697V19.9348L138.852 15.3017H146.822L146.609 17.2366L143.982 16.9526H141.372ZM151.704 16.9704L146.698 29.5383H149.059L149.911 25.9703H155.715L156.425 29.5206H159.177L154.011 15.213L152.147 15.355L151.704 16.9704ZM152.937 17.6353L150.567 24.3372H155.165L152.937 17.6353Z" fill="#191919"/>
</svg>
