<svg width="142" height="30" viewBox="0 0 142 30" fill="none" xmlns="http://www.w3.org/2000/svg">
<path d="M129.553 0.803431C131.15 0.803431 132.747 0.793398 134.344 0.807891C135.026 0.814579 135.71 0.842448 136.387 0.912679C137.355 1.01301 138.323 1.16239 139.214 1.5782C139.872 1.88587 140.442 2.31952 140.874 2.91704C141.425 3.68177 141.691 4.54906 141.848 5.46429C141.984 6.26135 142.002 7.06288 142 7.86663C141.994 9.65695 142 11.4484 141.997 13.2387C141.996 14.1996 141.879 15.1517 141.579 16.0635C141.054 17.6621 139.927 18.6532 138.306 19.0946C137.54 19.3031 136.759 19.4313 135.962 19.4547C135.034 19.4814 134.107 19.545 133.178 19.5494C130.29 19.5617 127.402 19.5784 124.514 19.5427C123.23 19.5271 121.943 19.4335 120.697 19.0522C119.935 18.8193 119.246 18.4581 118.673 17.9129C118.097 17.3656 117.715 16.6845 117.488 15.9253C117.185 14.9176 117.121 13.8797 117.126 12.834C117.134 10.9501 117.113 9.06612 117.134 7.18327C117.146 6.04174 117.286 4.91805 117.732 3.84564C118.192 2.73868 118.995 1.98286 120.081 1.52023C120.849 1.1936 121.668 1.0498 122.498 0.948352C123.954 0.771103 125.416 0.805661 126.877 0.802317C127.769 0.800087 128.66 0.802317 129.553 0.802317V0.803431ZM129.556 5.41413C129.556 5.43085 129.556 5.39741 129.556 5.41413C128.498 5.41413 127.44 5.4498 126.382 5.4721C125.942 5.48101 125.497 5.53787 125.064 5.6237C124.351 5.76528 123.719 6.07184 123.33 6.7251C123.008 7.26688 122.91 7.87777 122.892 8.48978C122.866 9.43511 122.875 10.3816 122.89 11.3269C122.898 11.785 122.914 12.2488 122.997 12.698C123.152 13.5364 123.595 14.1562 124.427 14.5017C125.301 14.864 126.221 14.9164 127.131 14.9309C128.995 14.9599 130.861 14.9343 132.725 14.8808C133.334 14.8629 133.95 14.7358 134.541 14.5776C135.315 14.3702 135.846 13.8463 136.054 13.0682C136.179 12.5988 136.279 12.1072 136.28 11.6245C136.282 10.3314 136.284 9.03156 136.17 7.74512C136.085 6.77972 135.517 6.08968 134.551 5.76082C133.821 5.51223 133.064 5.45314 132.309 5.42305C131.394 5.38626 130.475 5.41413 129.558 5.41413H129.556Z" fill="#191919"/>
<path d="M87.9885 19.3335V1.00662H88.2484C90.873 1.00662 93.4965 1.00662 96.1211 1.00439C96.2813 1.00439 96.3832 1.03784 96.4953 1.17941C97.276 2.16487 98.0736 3.13807 98.8712 4.11015C99.5847 4.98079 100.312 5.84027 101.023 6.71203C101.855 7.73093 102.672 8.76209 103.504 9.78099C104.216 10.6527 104.943 11.5133 105.656 12.3829C106.137 12.9681 106.607 13.5623 107.082 14.152C107.114 14.191 107.155 14.2222 107.227 14.2902V1.02223H112.875V19.3524C112.785 19.3524 112.686 19.3524 112.589 19.3524C110.042 19.3524 107.493 19.348 104.946 19.3591C104.713 19.3591 104.563 19.2788 104.43 19.1161C103.724 18.2611 103.016 17.4083 102.31 16.5521C101.632 15.7294 100.959 14.9011 100.279 14.0796C99.7573 13.4497 99.2218 12.831 98.7009 12.2012C98.1229 11.5011 97.5572 10.791 96.9781 10.092C96.5311 9.55135 96.0718 9.02183 95.6226 8.48228C95.1914 7.96392 94.7702 7.43663 94.34 6.91714C94.1238 6.65517 93.8998 6.39989 93.6399 6.09333V19.3335H87.9874H87.9885Z" fill="#191919"/>
<path d="M50.2293 1.00675C50.3402 1.00675 50.4331 1.00675 50.5261 1.00675C55.6051 1.00675 60.684 0.99003 65.7629 1.01901C67.0545 1.02682 68.3528 1.12715 69.5929 1.56414C70.2213 1.78598 70.8116 2.08697 71.2675 2.57412C71.7739 3.11367 72.0954 3.76247 72.2791 4.48373C72.5737 5.63528 72.5625 6.80914 72.5199 7.97853C72.4941 8.69533 72.372 9.41213 72.0909 10.0866C71.6831 11.0642 70.936 11.6695 69.9435 12.0006C69.8964 12.0162 69.8505 12.0374 69.8035 12.0486C69.7575 12.0597 69.7094 12.0608 69.6197 12.072C69.9737 12.2136 70.2986 12.3161 70.5988 12.4677C71.5879 12.9638 72.1883 13.7497 72.3272 14.8578C72.353 15.064 72.3754 15.2725 72.3765 15.481C72.381 16.6715 72.3788 17.8632 72.3788 19.0538V19.3403H66.7229V19.0761C66.7229 18.1296 66.733 17.1843 66.7173 16.2379C66.7117 15.9001 66.6423 15.5668 66.4272 15.2814C66.1763 14.9481 65.8212 14.7864 65.4291 14.7497C64.7682 14.6872 64.1017 14.6482 63.4374 14.6449C61.0425 14.6326 58.6475 14.6404 56.2514 14.6404C56.1506 14.6404 56.0498 14.6404 55.9209 14.6404V19.3403H50.2281V1.00675H50.2293ZM55.9344 5.61745V10.0286C56.0531 10.0286 56.1539 10.0286 56.2548 10.0286C59.0989 10.0286 61.9431 10.0297 64.7872 10.0264C65.0124 10.0264 65.2432 10.0163 65.4627 9.97286C65.9399 9.87811 66.3365 9.66184 66.5347 9.18137C66.8439 8.4289 66.8293 7.65748 66.6927 6.87491C66.6344 6.54494 66.4933 6.2551 66.2413 6.03883C65.8716 5.72112 65.4157 5.61968 64.9396 5.61856C62.0361 5.61522 59.1325 5.61633 56.229 5.61633H55.9344V5.61745Z" fill="#191919"/>
<path d="M21.1816 19.3512L31.3709 1.00098H38.4998L48.2992 19.3379C48.2992 19.3379 48.0998 19.3501 48.0191 19.3501C46.117 19.3501 42.1549 19.3535 42.1549 19.3535L40.3783 16.3023L29.2403 16.3057C29.2403 16.3057 27.4894 19.3457 27.4267 19.3457C25.4227 19.3523 21.1839 19.3512 21.1839 19.3512H21.1816ZM38.2612 11.8432C37.0816 9.70734 35.9256 7.61269 34.7494 5.48347C33.5933 7.62607 32.4575 9.72852 31.316 11.8432H38.2612Z" fill="#191919"/>
<path d="M26.3928 1.00652C26.0522 1.64194 16.6426 19.3467 16.5732 19.3467C14.3485 19.3534 9.72212 19.3523 9.72212 19.3523C9.72212 19.3523 8.92231 17.8251 8.51904 17.0637C7.85925 15.8174 7.19721 14.5711 6.53406 13.3259C6.07815 12.4686 5.61775 11.6136 5.16295 10.7563C4.49756 9.50331 3.83553 8.24808 3.17125 6.99396C2.7243 6.15119 2.27846 5.30842 1.82927 4.46566C1.25125 3.38321 0.672113 2.30077 0.0929757 1.21832C0.0627306 1.16147 0.0380864 1.10127 0 1.01878C0.103057 1.01432 0.183711 1.00652 0.264365 1.00652C2.14964 1.00652 6.26186 1.00317 6.26186 1.00317C6.26186 1.00317 7.5624 3.66302 8.20426 4.88258C8.76436 5.94719 9.32669 7.01179 9.88679 8.0764C10.4816 9.20789 11.0753 10.3394 11.6701 11.4709C12.0443 12.1832 12.4195 12.8956 12.7959 13.6068C12.8721 13.7506 12.9561 13.8911 13.0536 14.0661C13.319 13.6012 13.57 13.1665 13.8164 12.7295C14.4773 11.5511 15.1382 10.3739 15.7958 9.1934C16.2517 8.37516 16.6998 7.55357 17.1568 6.73533C17.7191 5.72981 18.2882 4.72874 18.8505 3.72322C19.2314 3.04321 20.4222 1.02212 20.4222 1.02212C20.4222 1.02212 24.3518 1.0054 26.05 1.0054C26.143 1.0054 26.2359 1.0054 26.3917 1.0054L26.3928 1.00652Z" fill="#191919"/>
<path d="M82.9623 19.339H77.3367V1.02661H82.9623V19.339Z" fill="#191919"/>
<path d="M77.7714 22.5547H80.033C80.3467 22.5547 80.648 22.5837 80.9393 22.6416C81.2305 22.6996 81.4893 22.7988 81.7167 22.9393C81.9441 23.0797 82.1244 23.2681 82.2588 23.5067C82.3933 23.7453 82.4616 24.0463 82.4616 24.413C82.4616 24.8823 82.3305 25.2758 82.0706 25.5936C81.8096 25.9113 81.4377 26.103 80.9527 26.1699L82.6823 29.0349H81.2854L79.7765 26.2892H78.9308V29.0349H77.7725V22.5547H77.7714ZM79.8314 25.3004C79.9972 25.3004 80.1618 25.2926 80.3276 25.277C80.4934 25.2614 80.6446 25.2257 80.7824 25.1666C80.9202 25.1086 81.0322 25.0206 81.1185 24.9013C81.2036 24.782 81.2473 24.6159 81.2473 24.4019C81.2473 24.2135 81.207 24.0607 81.1274 23.9448C81.0468 23.8289 80.9437 23.7419 80.8149 23.684C80.6861 23.626 80.5438 23.5881 80.387 23.5691C80.2313 23.5502 80.0789 23.5413 79.9322 23.5413H78.9296V25.2981H79.8314V25.3004Z" fill="#191919"/>
<path d="M84.3009 22.5546H88.6137V23.598H85.4592V25.1899H88.4479V26.2333H85.4592V27.9902H88.7783V29.0336H84.2998V22.5535L84.3009 22.5546Z" fill="#191919"/>
<path d="M92.7619 22.5547H93.7645L96.5694 29.0349H95.2454L94.6382 27.5522H91.8153L91.2272 29.0349H89.9301L92.763 22.5547H92.7619ZM94.2338 26.5634L93.2313 23.9281L92.2108 26.5634H94.2338V26.5634Z" fill="#191919"/>
<path d="M98.0311 22.5547H99.1905V27.9914H101.959V29.0349H98.0311V22.5547V22.5547Z" fill="#191919"/>
<path d="M106.997 22.5546H111.31V23.598H108.155V25.1899H111.145V26.2333H108.155V27.9902H111.476V29.0336H106.997V22.5535V22.5546Z" fill="#191919"/>
<path d="M116.543 23.9462C116.421 23.769 116.257 23.6397 116.052 23.5572C115.845 23.4747 115.63 23.4334 115.403 23.4334C115.267 23.4334 115.137 23.449 115.013 23.4791C114.887 23.5092 114.773 23.5583 114.673 23.6252C114.572 23.6921 114.49 23.779 114.43 23.886C114.368 23.993 114.338 24.119 114.338 24.2662C114.338 24.4858 114.414 24.653 114.567 24.7689C114.72 24.8849 114.91 24.9863 115.137 25.071C115.364 25.1569 115.612 25.2382 115.882 25.3185C116.151 25.3977 116.4 25.508 116.626 25.6474C116.854 25.7878 117.043 25.974 117.196 26.2059C117.349 26.4377 117.426 26.7454 117.426 27.13C117.426 27.4778 117.361 27.781 117.232 28.0408C117.103 28.3005 116.93 28.5157 116.712 28.6862C116.495 28.8568 116.242 28.985 115.954 29.0708C115.665 29.1556 115.362 29.199 115.043 29.199C114.639 29.199 114.249 29.1321 113.875 28.9973C113.501 28.8635 113.179 28.6372 112.909 28.3195L113.783 27.4778C113.924 27.6919 114.109 27.858 114.34 27.9772C114.57 28.0965 114.814 28.1556 115.071 28.1556C115.207 28.1556 115.341 28.1378 115.476 28.101C115.611 28.0642 115.733 28.0096 115.844 27.936C115.955 27.8624 116.044 27.7699 116.111 27.6573C116.178 27.5447 116.213 27.4154 116.213 27.2682C116.213 27.0308 116.136 26.8469 115.983 26.7198C115.83 26.5916 115.639 26.4834 115.413 26.3954C115.186 26.3073 114.937 26.2226 114.668 26.1434C114.398 26.0643 114.151 25.9562 113.923 25.819C113.696 25.6819 113.506 25.498 113.353 25.2706C113.2 25.042 113.123 24.7355 113.123 24.3509C113.123 24.0153 113.193 23.7255 113.331 23.4814C113.468 23.2372 113.649 23.0343 113.873 22.8727C114.096 22.7111 114.352 22.5907 114.641 22.5104C114.929 22.4312 115.223 22.3911 115.524 22.3911C115.868 22.3911 116.201 22.4424 116.522 22.5472C116.845 22.6509 117.134 22.8214 117.391 23.06L116.546 23.9473L116.543 23.9462Z" fill="#191919"/>
<path d="M120.7 23.5981H118.704V22.5547H123.855V23.5981H121.86V29.0349H120.701V23.5981H120.7Z" fill="#191919"/>
<path d="M126.641 22.5547H127.643L130.448 29.0349H129.124L128.517 27.5522H125.694L125.106 29.0349H123.809L126.642 22.5547H126.641ZM128.113 26.5634L127.11 23.9281L126.09 26.5634H128.113Z" fill="#191919"/>
<path d="M132.398 23.5981H130.402V22.5547H135.553V23.5981H133.558V29.0349H132.4V23.5981H132.398Z" fill="#191919"/>
<path d="M137.079 22.5546H141.391V23.598H138.237V25.1899H141.226V26.2333H138.237V27.9902H141.556V29.0336H137.078V22.5535L137.079 22.5546Z" fill="#191919"/>
</svg>
